<svg xmlns="http://www.w3.org/2000/svg" viewBox="0 0 512 512">
  <!-- Background -->
  <rect width="512" height="512" rx="80" fill="#0f172a"/>

  <!-- Document body -->
  <rect x="112" y="88" width="204" height="264" rx="16" fill="#1e3a5f"/>
  <!-- Corner fold -->
  <path d="M268 88 L316 136 L268 136 Z" fill="#0c1f36"/>
  <path d="M268 88 L268 136 L316 136" fill="none" stroke="#0f172a" stroke-width="2"/>

  <!-- Text lines -->
  <rect x="144" y="172" width="140" height="12" rx="6" fill="#38bdf8"/>
  <rect x="144" y="200" width="116" height="12" rx="6" fill="#334155"/>
  <rect x="144" y="228" width="128" height="12" rx="6" fill="#334155"/>
  <rect x="144" y="256" width="100" height="12" rx="6" fill="#334155"/>
  <rect x="144" y="284" width="120" height="12" rx="6" fill="#334155"/>

  <!-- Magnifying glass circle -->
  <circle cx="312" cy="336" r="92" fill="#0f172a" stroke="#38bdf8" stroke-width="22"/>

  <!-- Neural nodes inside lens -->
  <circle cx="286" cy="314" r="11" fill="#7dd3fc"/>
  <circle cx="338" cy="314" r="11" fill="#7dd3fc"/>
  <circle cx="312" cy="354" r="11" fill="#bae6fd"/>

  <!-- Neural connections -->
  <line x1="297" y1="320" x2="327" y2="320" stroke="#38bdf8" stroke-width="5" stroke-linecap="round"/>
  <line x1="289" y1="328" x2="304" y2="346" stroke="#38bdf8" stroke-width="5" stroke-linecap="round"/>
  <line x1="335" y1="328" x2="320" y2="346" stroke="#38bdf8" stroke-width="5" stroke-linecap="round"/>

  <!-- Handle -->
  <line x1="381" y1="405" x2="432" y2="456" stroke="#38bdf8" stroke-width="28" stroke-linecap="round"/>
</svg>
